<svg width="274" height="16" viewBox="0 0 274 16" fill="none" xmlns="http://www.w3.org/2000/svg">
<path fill-rule="evenodd" clip-rule="evenodd" d="M116.068 1.49962C103.229 2.01353 90.5407 2.64543 78.1674 3.33626C60.6517 4.31352 43.1427 5.3245 25.7393 6.92519C20.2611 7.43068 14.6979 7.7508 9.25399 8.38265C5.83661 8.77861 1.30525 9.34299 0.710568 9.46094C0.399524 9.52833 0.263826 9.62953 0.219979 9.66322C-0.088325 9.89912 -0.032071 10.1265 0.141949 10.3034C0.211832 10.3792 0.388543 10.5646 0.879088 10.5899C33.6853 12.317 67.2315 8.94711 100.078 8.59327C157.038 7.98669 215.726 10.3962 272.234 15.6532C272.728 15.6953 273.207 15.4846 273.276 15.1729C273.358 14.8696 273.002 14.5748 272.508 14.5326C215.904 9.26718 157.121 6.84928 100.05 7.46428C69.439 7.79285 38.2236 10.75 7.56996 9.73902C8.27426 9.65477 8.9649 9.57049 9.59521 9.49467C15.0172 8.86281 20.5571 8.55112 26.0134 8.04564C43.3798 6.44495 60.8531 5.43398 78.3456 4.46514C100.05 3.25198 122.7 2.20731 145.528 1.71867C153.695 1.7945 161.834 1.87035 169.973 1.96302C187.581 2.16522 205.271 2.75495 222.837 3.54687C228.126 3.79119 233.415 4.04391 238.705 4.26295C240.458 4.33878 244.98 4.55778 245.611 4.54093C246.392 4.52408 246.542 4.11973 246.556 4.05234C246.597 3.90069 246.57 3.69006 246.186 3.51314C246.145 3.48787 245.898 3.40357 245.35 3.35302C213.41 0.370671 179.305 -0.126309 145.556 0.589792C109.957 0.278077 74.2211 0.14322 38.7128 0C38.2044 0 37.7892 0.252778 37.7851 0.564493C37.7824 0.876207 38.192 1.12899 38.7004 1.13742C64.4116 1.23852 90.2529 1.33955 116.068 1.49962Z" fill="#FFC869"/>
</svg>
